<svg width="130" height="66" viewBox="0 0 130 66" fill="none" xmlns="http://www.w3.org/2000/svg">
<g clip-path="url(#clip0_107_40)">
<path d="M34.4007 3.40465C36.741 2.56775 39.0751 2.17383 41.5581 2.04603C47.0855 2.03144 51.3447 3.57252 55.4368 7.23142C60.2954 11.5759 63.4404 18.3452 64.4261 24.6368C64.7229 26.5321 64.752 28.4634 64.835 30.3765C64.265 29.1474 63.8693 27.8204 63.3569 26.5646C62.3145 23.9949 61.0441 21.5185 59.5601 19.163C59.14 18.5296 58.7028 17.9072 58.2492 17.296C54.1371 11.7866 48.2841 7.37978 41.2363 6.29398C41.2537 9.29862 41.3353 12.318 41.2548 15.3213C38.9455 15.1757 36.7031 15.0811 34.3884 15.1701L34.4007 3.40465Z" fill="black"/>
<path d="M65.1437 29.6227C65.1235 22.3917 67.311 15.3592 72.0579 9.71395C75.5135 5.60452 80.2558 2.67793 85.7427 2.1316C88.8867 1.67105 92.4636 2.49089 95.4267 3.47738C95.359 7.31663 95.4737 11.1576 95.394 14.9974C93.17 15.0171 90.9464 15.0591 88.7233 15.1236C88.6962 12.1607 88.6876 9.19751 88.6975 6.23453C86.691 6.70105 84.6878 7.1913 82.7825 7.97582C78.1436 9.88551 74.6022 13.5189 71.6765 17.4053C69.9492 19.8692 68.4401 22.4715 67.1653 25.1838C66.4891 26.6328 65.9867 28.2623 65.1437 29.6227Z" fill="black"/>
<path d="M68.3301 29.8696C69.2899 28.3795 70.4702 26.9794 71.691 25.685C76.0676 20.9958 81.9905 17.942 88.4359 17.0511C90.883 16.7036 93.3933 16.6552 95.8623 16.5491C99.1649 16.4585 102.469 16.4452 105.772 16.5093C100.277 20.3138 95.4609 25.1787 92.4019 31.0797C94.6941 33.1471 96.205 35.5376 96.5241 38.6116C96.8249 41.5106 96.054 44.3233 94.1301 46.5818C91.9522 49.1389 88.7127 50.4678 85.3655 50.7759C80.4854 51.2252 75.882 49.9116 72.1022 46.8614C67.1415 42.8582 65.7057 37.8224 65.1309 31.8454C67.107 31.8105 69.0907 31.8655 71.0675 31.8848C71.1829 35.2904 71.4924 38.1059 73.4776 41.017C74.5697 42.6168 76.1987 43.9433 77.9586 44.7964C80.5987 46.076 83.969 46.4107 86.7792 45.4721C88.4861 44.902 90.0536 43.8037 90.8494 42.1907C91.5363 40.798 91.4946 39.2868 90.9603 37.8586C89.7878 34.7232 87.0132 32.5234 83.9831 31.1581C86.2605 28.2693 88.4838 25.3403 90.6514 22.3725C82.8958 22.8958 77.6352 24.4183 71.9002 29.8559C70.7121 29.8336 69.5187 29.8628 68.3301 29.8696Z" fill="black"/>
<path d="M37.3125 30.8848C35.2793 27.3783 31.4767 22.4246 28.3786 19.7254C27.0952 18.6073 25.6676 17.6923 24.2927 16.6895C25.4004 16.506 27.6226 16.6642 28.8233 16.6682C33.4248 16.6841 38.2059 16.4214 42.7547 17.1782C50.6944 18.4994 57.005 23.5891 61.5552 29.829L57.5967 29.8487C52.6083 24.7463 46.5425 22.4149 39.3914 22.196C40.0929 23.2685 40.9179 24.2852 41.6709 25.3262C43.066 27.2547 44.4365 29.2268 45.7201 31.2275C43.2421 32.6322 40.9677 34.1761 39.4646 36.6193C38.6202 37.9916 38.1967 39.474 38.6323 41.068C39.0753 42.6894 40.2922 43.9608 41.7681 44.7751C44.3552 46.2022 47.5667 46.2135 50.3672 45.461C52.1341 44.8491 53.7163 43.91 55.0412 42.6121C58.0866 39.628 58.6375 35.8692 58.629 31.8423C60.5554 31.831 62.4818 31.8444 64.4077 31.8823C64.1514 37.2585 62.9924 41.888 59.0373 45.8967C55.8457 49.1318 51.4756 50.8826 46.88 50.9429C43.1585 50.9916 39.052 49.759 36.3635 47.1757C34.3196 45.2117 33.3187 42.4386 33.3155 39.6721C33.3113 36.0911 34.755 33.373 37.3125 30.8848Z" fill="black"/>
<path d="M3.57225 58.768C3.47234 60.0989 2.66531 64.1092 3.07072 65.08C3.2279 65.2273 3.32437 65.2718 3.53304 65.3115C3.71732 65.3465 3.8736 65.3871 4.04938 65.456L4.10286 65.6067L3.99862 65.6968C3.34389 65.8596 1.15604 65.9136 0.534912 65.6798C0.612056 65.5096 0.714672 65.4892 0.86914 65.3985C1.07998 65.2748 1.37211 65.1205 1.52369 64.9322C2.01961 64.3164 2.80948 56.4163 3.18834 54.93C3.21562 54.9374 3.2438 54.9425 3.27018 54.9525C3.4167 55.0074 3.49872 55.0847 3.58959 55.2102C4.11894 55.9408 4.47991 56.9206 4.8799 57.733L7.63522 63.3317C8.73836 61.5428 9.83337 59.1674 10.7999 57.2616C11.1069 56.6564 11.4568 55.6168 11.9217 55.1378C12.0263 55.03 12.061 55.0678 12.1984 55.0747C12.8071 55.6154 13.1168 63.2352 13.6533 64.5754C13.787 64.9095 14.0129 65.1268 14.3608 65.2518C14.9549 65.465 15.6831 65.2987 16.1097 64.8422C16.66 64.2533 17.0086 62.9304 17.3096 62.19C17.8885 60.7651 18.5163 59.3596 19.1118 57.9412C19.4482 57.1398 19.741 56.2037 20.1725 55.4563C20.2845 55.2626 20.3351 55.231 20.5322 55.1378C21.4702 55.6757 24.1623 64.6989 25.4186 65.2685C25.8236 65.4522 26.779 65.4527 27.1676 65.2465C27.3329 65.1577 27.4558 65.0092 27.5096 64.833C27.7008 64.2016 27.7698 56.4662 27.4959 56.0733C27.2769 55.7594 26.6038 55.7309 26.2428 55.6729L26.1709 55.5439C26.5665 55.2426 30.403 55.3579 31.2029 55.3823C32.0486 55.4081 33.0555 55.6718 33.6385 56.3041C34.0764 56.7791 34.248 57.3922 34.2004 58.0219C34.105 59.2824 33.2193 60.2047 32.2826 60.9792C33.0907 61.9507 33.8813 62.9733 34.761 63.884C35.444 64.5912 36.5423 65.5063 37.5862 65.5059C37.8294 65.5059 38.2456 65.4033 38.3916 65.201C38.8478 64.5683 38.7426 56.9536 38.4731 56C38.2698 55.8228 38.0592 55.8386 37.7963 55.7871C37.5824 55.7453 37.394 55.7558 37.27 55.5758C37.646 55.2652 38.9909 55.4166 39.5238 55.4243C40.4512 55.4001 41.3695 55.3721 42.2958 55.4417C41.9462 55.6198 41.6544 55.6467 41.2849 55.7458C41.0461 55.81 40.6772 55.9274 40.5709 56.1696C40.3139 56.755 40.4499 63.0076 40.5321 63.97C40.569 64.4024 40.636 64.8116 40.804 65.2166C41.1693 65.465 41.7715 65.3363 42.2045 65.5119L42.1915 65.6434C41.5435 65.8441 35.9788 65.8362 35.1684 65.7012C33.0667 65.3507 31.855 62.9553 30.715 61.4099C30.2535 61.3902 29.7894 61.4115 29.328 61.4213C29.3145 62.2631 29.2854 63.1095 29.3005 63.9512C29.3338 65.7754 30.2082 64.9833 30.8767 65.6007C30.1791 65.8877 23.2893 65.8405 22.2841 65.6687L22.2615 65.5501C22.4163 65.4618 22.55 65.3644 22.6897 65.2547C22.9428 64.6896 21.9728 62.7203 21.724 62.0998C20.6684 62.1271 19.6088 62.1162 18.5526 62.1209C18.2565 62.9803 17.4381 64.3597 17.5564 65.2588C17.7644 65.452 18.6158 65.5165 18.9251 65.6169L19.027 65.651C17.8258 65.8308 13.1663 65.9626 12.176 65.6012C11.4881 65.0651 11.2874 59.8456 11.1188 58.6722C10.5963 59.8962 8.18245 65.0916 7.44967 65.7677L7.29828 65.7362C5.99261 64.5094 4.52363 60.5398 3.61579 58.848L3.57225 58.768ZM29.3191 56.1341C29.3116 57.6559 29.319 59.1776 29.341 60.699C30.2488 60.7097 31.0373 60.7804 31.7906 60.2061C32.2683 59.5069 32.5386 58.687 32.3825 57.8417C32.2848 57.3119 31.9961 56.8462 31.5377 56.54C30.8776 56.0991 30.0891 56.0788 29.3191 56.1341ZM20.195 57.871C19.7273 59.0321 19.2283 60.1894 18.7958 61.3629L20.175 61.3633L21.4339 61.3526C21.0384 60.1863 20.6254 59.0256 20.195 57.871Z" fill="black"/>
<path d="M46.3712 62.1258C46.0422 62.9825 45.5232 63.9954 45.4049 64.8954C45.3481 65.3283 46.1456 65.3442 46.3837 65.6676C45.7385 65.8615 43.1971 65.7805 42.4902 65.6673L42.4233 65.5655C42.6972 65.348 43.1305 65.3844 43.4611 65.2847C43.7541 65.1963 43.9617 64.8822 44.1032 64.6349C44.5364 63.8776 44.8417 62.9999 45.1911 62.1991L47.3143 57.3383C47.6422 56.592 47.9446 55.7714 48.3793 55.0787C48.5528 55.1384 48.6772 55.1901 48.782 55.3455C49.2265 56.0052 49.5139 56.8908 49.825 57.6184C50.4181 58.9939 50.9991 60.3743 51.5681 61.7596C51.9137 62.6071 52.2204 63.5104 52.6323 64.3274C53.1339 65.322 53.7837 65.3109 54.7759 65.6305C53.5967 65.8358 51.6911 65.9042 50.5159 65.6757L50.457 65.5595C50.5977 65.4591 50.7256 65.3514 50.8553 65.2376C51.0548 64.5916 50.0873 62.8616 49.8116 62.2068L47.7795 62.2061C47.3026 62.2028 46.8457 62.1829 46.3712 62.1258ZM48.0782 57.9634C47.586 59.1318 47.1269 60.3133 46.7018 61.5065L48.3605 61.5242L49.5661 61.5181C49.2841 60.7487 48.64 58.4764 48.0782 57.9634Z" fill="black"/>
<path d="M111.195 65.7036C109.97 65.8701 108.548 65.874 107.318 65.74L107.24 65.6402L107.295 65.5205C107.554 65.4164 107.815 65.3303 108.082 65.2459C108.572 64.6518 108.236 56.4686 108.317 55.0289C108.506 55.0548 108.604 55.0789 108.759 55.1947C109.591 55.815 110.374 56.7945 111.117 57.5289C112.928 59.317 114.802 61.0238 116.475 62.9404C116.434 61.8779 116.57 56.8228 116.252 56.1928C116.011 55.7148 115.2 55.7415 114.729 55.5958L114.633 55.5654C114.667 55.5593 114.702 55.5535 114.736 55.5466C116.139 55.2652 117.86 55.3 119.28 55.5116C118.822 55.6943 118.34 55.7285 117.882 55.9293C117.73 56.1177 117.718 56.1856 117.69 56.4266C117.572 57.4194 117.644 58.4848 117.642 59.4878C117.649 61.6447 117.639 63.8013 117.613 65.958C117.428 65.9348 117.285 65.903 117.135 65.787C116.386 65.2109 115.708 64.4159 115.012 63.7651C113.091 61.9655 111.062 60.2201 109.386 58.1946C109.485 60.5126 109.382 62.8976 109.588 65.2C110.108 65.3936 110.665 65.5354 111.195 65.7036Z" fill="black"/>
<path d="M69.161 65.5444C68.772 65.6873 68.4033 65.7761 67.9934 65.8397C65.9752 66.1525 63.7951 65.9515 62.1125 64.7321C60.9324 63.8768 60.262 62.6379 60.0689 61.2341C59.8718 59.8015 60.1565 58.3463 61.0923 57.1948C62.1362 55.91 63.6043 55.4206 65.2119 55.213C66.5096 55.0618 67.9959 55.2469 69.2333 55.6426C69.2421 56.514 69.3126 57.4307 69.2013 58.2955L69.0318 58.3205C68.5892 57.9429 68.7299 57.0955 67.8949 56.4901C67.1379 55.9413 66.0342 55.8676 65.1322 56.0093C64.1886 56.1575 63.2695 56.6191 62.7105 57.391C61.9713 58.4116 61.8779 60.0755 62.1259 61.2671C62.3855 62.5136 63.0845 63.6419 64.2036 64.331C65.2503 64.9756 66.4713 65.1683 67.6712 64.8932C68.7364 64.3804 68.9435 63.6105 69.3849 62.6131C69.4087 63.6281 69.3995 64.5521 69.161 65.5444Z" fill="black"/>
<path d="M88.5336 66C88.1155 65.9729 87.4586 66.0035 87.0844 65.8216C86.8443 65.7049 86.7061 65.5549 86.6183 65.3104C86.4431 64.8228 86.2951 63.502 86.5278 63.0361C87.1236 63.3916 87.2295 64.5479 88.1664 65.0262C88.5993 65.2471 89.3939 65.2076 89.8488 65.0673C90.3153 64.9233 90.716 64.561 90.9364 64.139C92.0007 62.1013 87.3672 61.0262 86.7199 58.6428C86.5298 57.943 86.6505 57.1374 87.0546 56.5262C87.5986 55.7037 88.539 55.3866 89.4748 55.2012C89.6745 55.1848 89.8748 55.178 90.075 55.1806C90.5953 55.1827 91.1984 55.1725 91.5765 55.5828C92.0889 56.1383 91.8778 57.2272 91.8227 57.9008C91.5792 57.402 91.5062 56.9388 91.065 56.547C90.6392 56.1689 90.1243 55.9479 89.5404 55.9897C89.1213 56.0198 88.7169 56.2026 88.447 56.5199C88.1869 56.8256 88.0839 57.2153 88.1446 57.6062C88.3054 58.6402 90.1149 59.5222 90.9115 60.1C91.7413 60.7019 92.5281 61.5376 92.656 62.5775C92.7532 63.3668 92.4153 64.1877 91.8854 64.7774C91.0168 65.7439 89.7747 65.9228 88.5336 66Z" fill="black"/>
<path d="M119.66 65.2787C121.301 62.1656 122.434 58.445 124.052 55.2244C124.084 55.2277 124.117 55.2295 124.149 55.2344C124.248 55.2497 124.358 55.2822 124.429 55.3573C124.785 55.7283 125.009 56.6403 125.205 57.1302L127.075 61.7315C127.561 62.924 127.951 64.2284 128.721 65.2801C128.852 65.3172 128.987 65.3524 129.115 65.4009C129.304 65.473 129.387 65.4944 129.465 65.688C128.881 66.0272 126.916 65.8242 126.211 65.7361L126.138 65.5927C126.251 65.4603 126.337 65.3329 126.423 65.1829C126.289 64.2453 125.699 63.0722 125.315 62.1906L124.097 62.2157L122.315 62.2191C121.877 63.2173 121.419 64.2112 121.157 65.2689C121.604 65.396 122.026 65.5408 122.457 65.7127C121.491 65.8622 120.057 65.9244 119.104 65.7442C118.887 65.7033 118.959 65.7518 118.853 65.5964C119.045 65.3659 119.377 65.3429 119.66 65.2787ZM123.863 58.0655C123.459 59.1707 122.974 60.2874 122.629 61.408L123.685 61.4335L125.059 61.4455C124.864 60.8743 124.156 58.3654 123.863 58.0655Z" fill="black"/>
<path d="M71.7534 55.9358C71.2556 55.7903 70.7384 55.8273 70.4226 55.3928C71.6977 55.204 73.6462 55.2914 74.9815 55.3218C75.9403 55.3438 76.9618 55.5431 77.6333 56.2659C78.1056 56.7741 78.3155 57.489 78.2615 58.166C78.1672 59.347 77.3885 60.1359 76.5367 60.883C77.6723 62.1256 79.2154 64.7887 80.8345 65.3236C81.1899 65.441 81.4361 65.4071 81.7684 65.2544L81.6995 65.0768L81.8119 65.1995C82.1347 64.2594 82.1866 57.2902 82.0095 56.0994C81.7655 55.7938 81.5228 55.727 81.1496 55.6607C80.8526 55.6081 80.5689 55.5392 80.2784 55.4596C81.1355 55.3274 83.9546 55.2183 84.8019 55.3979L84.8617 55.5352L84.7929 55.6597C84.5352 55.7523 84.2353 55.8291 84.0297 56.0121C83.6274 56.37 83.8019 59.2062 83.8048 59.884C83.8007 60.8814 83.6014 64.3628 83.999 65.0645C84.1828 65.3887 85.2088 65.5493 85.5835 65.6597C84.5604 65.894 81.2844 65.9202 80.1841 65.8258C77.4861 65.5941 76.449 63.2881 74.9105 61.4796C74.4794 61.4306 74.0393 61.4225 73.6059 61.4C73.6016 62.431 73.381 64.0699 73.7844 65.0032C73.9503 65.1679 74.0446 65.2183 74.2758 65.279C74.3952 65.3101 74.5082 65.334 74.62 65.3874C74.7896 65.4686 74.7972 65.4586 74.8601 65.6404C74.433 65.9784 71.5996 65.7444 70.856 65.7L70.8221 65.5585C71.002 65.2169 71.3948 65.385 71.6166 65.1106C71.9826 64.6577 71.8963 57.0028 71.7704 56.0518C71.7653 56.0131 71.7592 55.9745 71.7534 55.9358ZM73.5909 56.0905C73.5804 56.968 73.3353 60.0554 73.7291 60.6624C74.1071 60.9081 74.4789 60.8399 74.9047 60.7545C75.2989 60.6756 75.526 60.5585 75.8178 60.2905C76.315 59.5047 76.556 58.6149 76.3419 57.6959C76.2135 57.1445 75.9125 56.6866 75.4167 56.3849C74.846 56.0376 74.2361 56.0703 73.5909 56.0905Z" fill="black"/>
<path d="M96.3966 56.3575C95.781 56.3263 94.4335 56.1484 93.9628 56.5606C93.8224 56.9786 93.7066 57.2087 93.3061 57.4386L93.1612 57.3845C93.0033 56.865 93.3941 55.8696 93.5337 55.3231C96.1639 55.559 99.0055 55.4665 101.641 55.3138C101.386 56.0773 101.607 56.8947 101.351 57.6105L101.231 57.6156C100.866 57.3883 100.847 56.868 100.542 56.5862C100.133 56.2085 98.7994 56.3786 98.2321 56.3938L98.2379 64.8158C98.3454 65.0967 98.4572 65.1807 98.7333 65.3061C98.9631 65.4103 99.1609 65.5167 99.3728 65.6522L99.3015 65.7389C98.3781 65.9138 96.9998 65.857 96.0555 65.8049C95.772 65.7893 95.6099 65.8034 95.4226 65.5974C95.557 65.368 95.9769 65.3486 96.2358 65.2363C96.6405 64.4245 96.4074 57.736 96.3966 56.3575Z" fill="black"/>
<path d="M103.281 65.1913C103.39 64.3213 103.43 56.8833 103.227 56.4264C103.038 56.0046 102.76 55.8768 102.333 55.7209L102.222 55.6817L102.179 55.5463L102.367 55.3979C103.775 55.3841 105.223 55.3152 106.619 55.5087C106.159 55.7028 105.655 55.8393 105.178 55.9947C105.171 57.3317 105.028 64.2482 105.288 64.9809C105.532 65.2577 105.779 65.3562 106.131 65.4671L106.294 65.5172L106.316 65.648L106.111 65.7406C104.769 65.8071 103.367 65.8341 102.029 65.7105L103.281 65.1913Z" fill="black"/>
</g>
<defs>
<clipPath id="clip0_107_40">
<rect width="128.93" height="66" fill="white" transform="translate(0.534912)"/>
</clipPath>
</defs>
</svg>
