<?xml version="1.0" encoding="utf-8" ?>
<svg xmlns="http://www.w3.org/2000/svg" xmlns:xlink="http://www.w3.org/1999/xlink" width="2312" height="2030">
	<path d="M56 87.3333L195.261 87.2815C220.971 87.2784 247.639 85.8874 273.229 88.2682C329.725 93.5244 381.963 121.11 421.778 160.936C506.598 245.779 532.412 377.468 538.74 492.706C541.928 550.754 540.141 609.377 540.253 667.514C540.417 752.78 540.628 839.066 550.603 923.833C559.962 1003.37 579.164 1085.86 631.57 1148.84C721.367 1256.76 880.183 1277.08 1011.21 1288.71L1011.21 608.284L1011.21 409.285C1011.21 368.279 1013.79 325.414 1008.18 284.753C1004.43 257.543 994.789 231.314 975.243 211.452C923.261 158.631 816.802 155.245 747 155L747 87.3333L1565 87.3333L1565 155C1495.11 155.246 1389.22 158.617 1337.07 211.133C1317.76 230.58 1308.01 256.257 1304.07 282.997C1298.11 323.488 1300.8 366.34 1300.81 407.225L1300.8 604.205L1300.79 1288.79C1365.31 1281.88 1428.7 1275.65 1491.63 1258.49C1562.3 1239.22 1630.55 1207.66 1678.84 1150.73C1706.24 1118.43 1725.08 1080.19 1737.86 1040.02C1755.79 983.681 1762.76 923.896 1766.71 865.129C1772.12 784.659 1771.82 703.7 1771.77 623.084C1771.74 556.7 1770.89 490.875 1779.44 424.854C1788.56 354.386 1806.97 285.624 1842.34 223.619C1855.68 200.622 1871.9 179.426 1890.62 160.549C1929.88 121.289 1982.35 93.4301 2038.1 88.278C2066.51 85.653 2096.12 87.3364 2124.67 87.3356L2254.5 87.3333C2254.83 88.0059 2255.18 88.6116 2255.4 89.3279C2257.29 95.547 2256.8 150.473 2254.25 155L2176.27 154.884C2162.45 154.871 2148.23 154.188 2134.46 155.28C2089.17 158.873 2070.21 201.668 2062.1 240.937C2055.84 271.223 2056.64 301.364 2056.64 332.064L2056.63 417.986L2056.65 581.925C2056.67 622.686 2057.24 663.303 2054.9 704.026C2046.5 849.487 2013.79 1025.03 1915.56 1138.82C1786.06 1288.86 1488.87 1345.44 1300.79 1359.22L1300.76 1575.46C1300.74 1630.97 1296.66 1693.13 1308.46 1747.2C1316.1 1782.24 1330.73 1816.3 1356.35 1841.98C1398.01 1883.74 1445.92 1887.05 1501.44 1887.06L1565 1887L1565 1942.67L747 1942.67L747 1887L810.043 1887.07C865.283 1887.09 913.427 1883.95 955.094 1842.53C980.771 1817.01 995.542 1783.24 1003.31 1748.29C1015.4 1693.86 1011.21 1631.76 1011.21 1576.05L1011.21 1359.15C972.66 1357.83 933.383 1351.99 895.253 1346.38C740.362 1323.6 525.999 1271.07 411.939 1155.62C284.857 1026.98 254.378 792.804 255.285 620.857L255.379 393.453L255.392 323.847C255.381 298.481 255.714 273.613 251.342 248.492C246.701 221.825 237.811 193.007 218.177 173.4C210.279 165.513 201.457 160.372 190.684 157.503C172.38 152.63 150.464 154.893 131.68 154.904L56 155L56 87.3333Z"/>
</svg>
